<svg width="42" height="32" fill="none" xmlns="http://www.w3.org/2000/svg"><g clip-path="url(#a)"><path d="M35.552 2.7A35.043 35.043 0 0 0 26.896.021a19.603 19.603 0 0 0-1.104 2.264 32.141 32.141 0 0 0-9.584 0A23.859 23.859 0 0 0 15.082.021a35.043 35.043 0 0 0-8.656 2.677C.95 10.841-.53 18.786.199 26.601c3.643 2.678 7.154 4.289 10.621 5.355a26.286 26.286 0 0 0 2.275-3.678 20.754 20.754 0 0 1-3.578-1.72c.31-.218.597-.457.884-.675 6.911 3.178 14.397 3.178 21.22 0 .288.24.575.457.884.675-1.126.675-2.34 1.24-3.578 1.72a26.276 26.276 0 0 0 2.275 3.678c3.467-1.066 7-2.677 10.621-5.355.862-9.077-1.48-16.936-6.227-23.902h-.044Zm-21.53 19.112c-2.076 0-3.776-1.894-3.776-4.223 0-2.33 1.656-4.223 3.776-4.223s3.798 1.894 3.776 4.223c0 2.308-1.656 4.223-3.776 4.223Zm13.934 0c-2.076 0-3.776-1.894-3.776-4.223 0-2.33 1.656-4.223 3.776-4.223s3.798 1.894 3.776 4.223c0 2.308-1.656 4.223-3.776 4.223Z" fill="#fff"/></g><defs><clipPath id="a"><path fill="#fff" d="M0 0h42v32H0z"/></clipPath></defs></svg>